<?xml version="1.0" encoding="UTF-8" standalone="no"?>
<svg
   width="1024"
   height="1024"
   viewBox="0 0 1024 1024"
   version="1.1"
   id="svg457"
   sodipodi:docname="f2fa-00.svg"
   inkscape:version="1.4.2 (f4327f4, 2025-05-13)"
   inkscape:export-filename="f2fa1.png"
   inkscape:export-xdpi="384"
   inkscape:export-ydpi="384"
   xmlns:inkscape="http://www.inkscape.org/namespaces/inkscape"
   xmlns:sodipodi="http://sodipodi.sourceforge.net/DTD/sodipodi-0.dtd"
   xmlns="http://www.w3.org/2000/svg"
   xmlns:svg="http://www.w3.org/2000/svg">
  <sodipodi:namedview
     id="namedview457"
     pagecolor="#ffffff"
     bordercolor="#000000"
     borderopacity="0.25"
     inkscape:showpageshadow="2"
     inkscape:pageopacity="0.0"
     inkscape:pagecheckerboard="0"
     inkscape:deskcolor="#d1d1d1"
     inkscape:zoom="0.82587862"
     inkscape:cx="505.52223"
     inkscape:cy="733.764"
     inkscape:window-width="1368"
     inkscape:window-height="842"
     inkscape:window-x="-6"
     inkscape:window-y="-6"
     inkscape:window-maximized="1"
     inkscape:current-layer="svg457" />
  <path
     fill="#00AAE0"
     d="M280.941 176.951C309.84 167.878 338.933 157.954 367.718 148.53L440.931 124.93L485.031 110.667C493.681 107.834 504.298 103.932 512.953 101.707C531.284 108.422 548.678 113.532 567.315 119.361L625.978 138.099L710.032 165.002C721.877 168.815 733.59 173.098 745.487 176.652C745.091 232.534 745.063 288.418 745.401 344.3L745.676 399.381C745.983 438.683 746.343 465.272 734.955 503.956C730.789 516.549 727.573 525.476 722.272 537.657C721.145 539.99 719.547 543.554 718.221 545.623C715.559 551.78 711.754 558.291 708.334 564.063C706.7 566.58 704.573 570.093 702.864 572.452C701.873 573.895 696.86 581.475 695.835 582.034C693.064 586.94 686.78 595.546 682.664 599.692C681.25 601.687 680.257 602.646 678.577 604.381C676.204 607.092 674.108 609.225 671.544 611.766C667.24 616.224 663.58 619.428 659.073 623.581C657.612 624.89 655.12 626.984 653.878 628.361L652.794 628.463C650.018 632.757 630.69 644.658 626.156 647.481C623.235 649.488 621.926 650.23 618.737 651.793C613.863 654.67 608.984 657.396 604.104 660.24C598.874 663.287 593.481 667.072 588.1 669.83C585.669 671.477 578.476 676.015 575.988 677.232C574.82 677.915 570.999 680.274 569.988 680.721C566.244 682.992 561.951 685.742 558.119 687.738C556.27 688.885 549.628 693.029 547.855 693.744C543.722 696.417 537.137 699.847 533.636 702.324L531.712 703.252C527.935 705.515 524.113 707.7 520.247 709.807C518.013 711.358 515.662 712.937 513.478 714.543C513.182 714.615 513.18 714.635 512.779 714.577C506.346 713.644 389.01 641.852 376.621 632.754C365.02 624.234 354.453 614.188 344.763 603.565C308.665 563.787 286.657 513.236 282.135 459.711C280.412 440.42 280.997 417.612 280.985 398.068L280.663 320.07C280.865 290.641 280.869 261.21 280.675 231.781C280.632 214.228 280.146 194.289 280.941 176.951Z"
     id="path2" />
  <defs
     id="defs14">
    <rect
       x="589.67503"
       y="747.08315"
       width="205.84139"
       height="167.09477"
       id="rect459" />
    <linearGradient
       id="gradient_0"
       gradientUnits="userSpaceOnUse"
       x1="529.72028"
       y1="518.54419"
       x2="532.35339"
       y2="516.51337">
      <stop
         offset="0"
         stop-color="#044B62"
         id="stop13" />
      <stop
         offset="1"
         stop-color="#016D86"
         id="stop14" />
    </linearGradient>
  </defs>
  <defs
     id="defs24">
    <linearGradient
       id="gradient_1"
       gradientUnits="userSpaceOnUse"
       x1="600.98999"
       y1="470.38574"
       x2="601.94867"
       y2="491.27768">
      <stop
         offset="0"
         stop-color="#03353C"
         id="stop23" />
      <stop
         offset="1"
         stop-color="#014E60"
         id="stop24" />
    </linearGradient>
  </defs>
  <defs
     id="defs186">
    <linearGradient
       id="gradient_2"
       gradientUnits="userSpaceOnUse"
       x1="651.84515"
       y1="628.10748"
       x2="650.58319"
       y2="626.28925">
      <stop
         offset="0"
         stop-color="#064655"
         id="stop185" />
      <stop
         offset="1"
         stop-color="#0E7482"
         id="stop186" />
    </linearGradient>
  </defs>
  <defs
     id="defs247">
    <linearGradient
       id="gradient_3"
       gradientUnits="userSpaceOnUse"
       x1="579.64453"
       y1="603.05219"
       x2="577.25507"
       y2="602.245">
      <stop
         offset="0"
         stop-color="#03425D"
         id="stop246" />
      <stop
         offset="1"
         stop-color="#126E7F"
         id="stop247" />
    </linearGradient>
  </defs>
  <defs
     id="defs322">
    <linearGradient
       id="gradient_4"
       gradientUnits="userSpaceOnUse"
       x1="719.70624"
       y1="540.82941"
       x2="717.47913"
       y2="539.22137">
      <stop
         offset="0"
         stop-color="#054F63"
         id="stop321" />
      <stop
         offset="1"
         stop-color="#0A6677"
         id="stop322" />
    </linearGradient>
  </defs>
  <path
     fill="#E7EAEC"
     d="M424.365 379.027C427.003 357.489 429.841 335.977 432.879 314.492C436.716 286.167 437.441 261.187 469.444 249.847C484.928 244.361 497.574 245.852 513.521 245.933L597.483 245.805C607.335 245.849 618.145 245.6 627.897 245.886C622.907 266.091 623.011 287.513 616.108 307.01C613.276 315.008 603.179 321.011 595.055 321.046C569.073 321.156 541.265 321.839 515.441 320.826C512.581 320.517 502.514 320.751 499.144 320.762C488.444 357.435 463.17 379.062 424.365 379.027Z"
     id="path440" />
  <path
     fill="#E7EAEC"
     d="M421.022 413.064C432.964 413.064 445.106 412.914 456.725 409.933C476.544 404.81 493.927 392.875 505.828 376.219C508.434 372.602 510.651 368.025 513.019 364.214C514.139 362.412 513.928 362.511 515.398 362.197C541.672 363.157 569.707 362.071 596.19 362.511C594.423 372.548 592.897 382.625 591.612 392.734C590.724 399.528 589.529 413.896 587.323 419.574C585.341 424.593 581.909 428.908 577.465 431.969C571.596 436.049 564.588 438.171 557.442 438.034L546.855 438.017L543.217 437.952L540.195 437.942L513.48 437.9L497.624 437.699C496.115 452.347 494.184 466.899 492.074 481.478C490.67 490.022 490.309 498.99 487.681 507.272C486.084 512.308 480.245 516.203 475.092 516.414C459.27 517.063 443.358 516.176 427.5 516.699C423.642 516.826 419.567 516.816 415.723 516.468C408.863 515.75 407.79 511.918 408.506 505.773C409.792 493.204 411.94 480.822 413.699 468.347L421.022 413.064Z"
     id="path441" />
  <text
     xml:space="preserve"
     id="text459"
     style="font-size:96px;text-align:start;writing-mode:lr-tb;direction:ltr;white-space:pre;shape-inside:url(#rect459);display:inline;fill:none;fill-opacity:0.0444444;paint-order:fill markers stroke" />
  <text
     xml:space="preserve"
     style="font-size:221.154px;text-align:start;writing-mode:lr-tb;direction:ltr;text-anchor:start;opacity:0.98;fill:#4dd1fd;fill-opacity:1;stroke-width:1.15184;paint-order:fill markers stroke"
     x="313.94788"
     y="881.71124"
     id="text460"
     transform="scale(0.97743149,1.0230896)"><tspan
       sodipodi:role="line"
       id="tspan460"
       x="313.94788"
       y="881.71124"
       style="stroke-width:1.15184;fill:#4dd1fd;fill-opacity:1">2FA</tspan></text>
</svg>
