<?xml version="1.0" encoding="UTF-8" standalone="no"?>
<svg
   width="1024"
   height="1024"
   viewBox="0 0 1024 1024"
   version="1.1"
   id="svg457"
   xmlns="http://www.w3.org/2000/svg"
   xmlns:svg="http://www.w3.org/2000/svg">
  <path
     id="path2"
     d="m 512.95312,101.70703 c -8.65498,2.225 -19.27187,6.12794 -27.92187,8.96094 l -44.09961,14.26172 -73.21289,23.59961 c -28.785,9.424 -57.87834,19.34887 -86.77734,28.42187 -0.795,17.338 -0.30863,37.27708 -0.26563,54.83008 0.194,29.429 0.18833,58.86006 -0.0137,88.28906 l 0.32227,77.99805 c 0.012,19.544 -0.57261,42.35158 1.15039,61.64258 4.522,53.525 26.5309,104.07551 62.6289,143.85351 9.69,10.623 20.25642,20.66946 31.85742,29.18946 12.389,9.098 129.72521,80.88926 136.15821,81.82226 0.401,0.058 0.40322,0.0388 0.69922,-0.0332 2.184,-1.606 4.53357,-3.18533 6.76757,-4.73633 3.866,-2.107 7.6898,-4.29169 11.4668,-6.55469 l 1.92383,-0.92773 c 3.501,-2.477 10.08575,-5.90708 14.21875,-8.58008 1.773,-0.715 8.41467,-4.85886 10.26367,-6.00586 3.832,-1.996 8.12514,-4.74658 11.86914,-7.01758 1.011,-0.447 4.832,-2.80528 6,-3.48828 2.488,-1.217 9.68033,-5.75534 12.11133,-7.40234 5.381,-2.758 10.77391,-6.54285 16.00391,-9.58985 4.88,-2.844 9.75881,-5.57026 14.63281,-8.44726 3.189,-1.563 4.49892,-2.3055 7.41992,-4.3125 4.534,-2.823 23.86267,-14.72358 26.63867,-19.01758 l 1.08399,-0.10156 c 1.242,-1.377 3.73236,-3.47225 5.19336,-4.78125 4.507,-4.153 8.16865,-7.35645 12.47265,-11.81446 2.564,-2.54098 4.65825,-4.67376 7.03125,-7.38476 1.68,-1.735 2.67389,-2.69445 4.08789,-4.68945 4.116,-4.146 10.40088,-12.75221 13.17188,-17.65821 1.025,-0.559 6.03634,-8.13903 7.02734,-9.58203 1.709,-2.359 3.8367,-5.87167 5.4707,-8.38867 3.42,-5.772 7.22472,-12.28245 9.88672,-18.43945 1.326,-2.069 2.92378,-5.6338 4.05078,-7.9668 5.301,-12.181 8.5176,-21.10817 12.6836,-33.70117 11.388,-38.684 11.0277,-65.27222 10.7207,-104.57422 l -0.27539,-55.08008 c -0.338,-55.882 -0.31006,-111.76644 0.0859,-167.64844 -11.897,-3.554 -23.61008,-7.83739 -35.45508,-11.65039 l -84.05273,-26.90234 -58.66407,-18.73828 c -18.637,-5.829 -36.03032,-10.9393 -54.36133,-17.6543 z m -21.64453,144.0957 c 7.09038,-0.30287 14.23939,0.0904 22.21289,0.13086 l 83.96094,-0.1289 c 9.852,0.044 20.66206,-0.20397 30.41406,0.082 -4.99,20.205 -4.88606,41.62605 -11.78906,61.12305 -2.832,7.998 -12.92873,14.00211 -21.05273,14.03711 -25.982,0.11 -53.78928,0.79229 -79.61328,-0.22071 -2.86,-0.309 -12.92688,-0.0754 -16.29688,-0.0644 -10.7,36.673 -35.9743,58.30062 -74.7793,58.26562 2.638,-21.538 5.47568,-43.05015 8.51368,-64.53515 3.837,-28.325 4.56145,-53.30453 36.56445,-64.64453 7.742,-2.743 14.77486,-3.74205 21.86523,-4.04493 z m 24.08985,116.39454 c 26.274,0.96 54.30801,-0.12555 80.79101,0.31445 -1.767,10.037 -3.29312,20.11366 -4.57812,30.22266 -0.888,6.794 -2.08306,21.16184 -4.28906,26.83984 -1.982,5.019 -5.41343,9.33353 -9.85743,12.39453 -5.869,4.08 -12.87743,6.20145 -20.02343,6.06445 l -10.58594,-0.0156 -3.63867,-0.0664 -3.02149,-0.01 -26.71484,-0.041 -15.85742,-0.20117 c -1.509,14.648 -3.43883,29.2003 -5.54883,43.7793 -1.404,8.544 -1.76458,17.51096 -4.39258,25.79296 -1.597,5.036 -7.43684,8.93158 -12.58984,9.14258 -15.822,0.649 -31.7338,-0.23784 -47.5918,0.28516 -3.858,0.127 -7.93334,0.11753 -11.77734,-0.23047 -6.86,-0.718 -7.9328,-4.55031 -7.2168,-10.69531 1.286,-12.569 3.43436,-24.95078 5.19336,-37.42578 l 7.32226,-55.28321 c 11.942,0 24.08413,-0.14986 35.70313,-3.13086 19.819,-5.123 37.20252,-17.05884 49.10351,-33.71484 2.60601,-3.617 4.82341,-8.19291 7.19141,-12.00391 1.12,-1.802 0.90891,-1.70357 2.37891,-2.01757 z"
     style="fill:#00aae0;fill-opacity:1" />
  <defs
     id="defs14" />
  <defs
     id="defs24" />
  <defs
     id="defs186" />
  <defs
     id="defs247" />
  <defs
     id="defs322" />
  <text
     xml:space="preserve"
     style="font-size:221.154px;text-align:start;writing-mode:lr-tb;direction:ltr;text-anchor:start;opacity:0.98;fill:#4dd1fd;fill-opacity:1;stroke-width:1.15184;paint-order:fill markers stroke"
     x="313.94788"
     y="881.71124"
     id="text460"
     transform="scale(0.97743149,1.0230896)"><tspan
       id="tspan460"
       x="313.94788"
       y="881.71124"
       style="fill:#4dd1fd;fill-opacity:1;stroke-width:1.15184">2FA</tspan></text>
</svg>
